<mxfile host="app.diagrams.net" modified="2024-01-15T07:55:24.456Z" agent="Mozilla/5.0 (X11; Linux x86_64) AppleWebKit/537.36 (KHTML, like Gecko) Chrome/118.0.0.0 Safari/537.36" version="22.1.18" etag="_4UeQa5_9FuQIX2Jyc2F" type="github">
  <diagram name="Page-1" id="-E1dlTiG0SN237dRoTB1">
    <mxGraphModel>
      <root>
        <mxCell id="0" />
        <mxCell id="1" parent="0" />
      </root>
    </mxGraphModel>
  </diagram>
</mxfile>
